Exact Audio Copy V0.99 prebeta 1 from 25. May 2007

EAC 抓取日志文件从11. 十月 2010, 22:46

吕文科 / 20世纪中华歌坛名人百集珍藏版

使用驱动器  ：PIONEER DVD-RW  DVR-115   Adapter: 0  ID: 0

读取模式     : 保护
使用精确流   : 是
废除音频缓冲 : 是
使用 C2 指针 : 否

读取偏移校正                   : 38
读取 Lead-In 和 Lead-Out       : 否
用静音填充抓取中丢失偏移的采样 : 是
去除首尾静音块                 : 否
已用接口                       : 已安装外部 ASPI 接口

所用输出格式 : 内部 WAV 函数
样本格式     : 44.100 Hz;16 Bit;立体声


被抓轨 CD 的 TOC

     音轨 |   开始   |   长度   | 起始扇区 | 结尾扇区 
    --------------------------------------------------
       1  |  0:00.00 |  5:36.62 |       0  |   25261  
       2  |  5:36.62 |  3:40.58 |   25262  |   41819  
       3  |  9:17.45 |  3:46.27 |   41820  |   58796  
       4  | 13:03.72 |  3:27.20 |   58797  |   74341  
       5  | 16:31.17 |  4:05.13 |   74342  |   92729  
       6  | 20:36.30 |  2:53.05 |   92730  |  105709  
       7  | 23:29.35 |  3:31.15 |  105710  |  121549  
       8  | 27:00.50 |  3:28.60 |  121550  |  137209  
       9  | 30:29.35 |  2:29.47 |  137210  |  148431  
      10  | 32:59.07 |  3:37.50 |  148432  |  164756  
      11  | 36:36.57 |  3:28.28 |  164757  |  180384  
      12  | 40:05.10 |  4:12.40 |  180385  |  199324  
      13  | 44:17.50 |  3:50.02 |  199325  |  216576  


范围状态及错误

已选择范围

     文件名 E:\文件夹\20世纪中华歌坛名人百集珍藏版-吕文科[lwg188原创]\吕文科 - 20世纪中华歌坛名人百集珍藏版.wav

     峰值电平 98.0 %
     范围质量 99.9 %
     复制 CRC 9D2790FB
     复制成功

没有错误发生

状态报告结尾
